<svg width="1200" height="1200" xmlns="http://www.w3.org/2000/svg" xmlns:xlink="http://www.w3.org/1999/xlink" version="1.1"><g transform="scale(12.55813953488372) translate(-2.2222222222222223, -2.2222832573784714)">            <linearGradient id="SvgjsLinearGradient1011"><stop id="SvgjsStop1012" stop-color="#905e26" offset="0"/><stop id="SvgjsStop1013" stop-color="#f5ec9b" offset="0.5"/><stop id="SvgjsStop1014" stop-color="#905e26" offset="1"/></linearGradient><linearGradient id="SvgjsLinearGradient1015"><stop id="SvgjsStop1016" stop-color="#905e26" offset="0"/><stop id="SvgjsStop1017" stop-color="#f5ec9b" offset="0.5"/><stop id="SvgjsStop1018" stop-color="#905e26" offset="1"/></linearGradient>            <g fill="url(#SvgjsLinearGradient1011)"><linearGradient id="SvgjsLinearGradient1011"><stop id="SvgjsStop1012" stop-color="#905e26" offset="0"/><stop id="SvgjsStop1013" stop-color="#f5ec9b" offset="0.5"/><stop id="SvgjsStop1014" stop-color="#905e26" offset="1"/></linearGradient><linearGradient id="SvgjsLinearGradient1015"><stop id="SvgjsStop1016" stop-color="#905e26" offset="0"/><stop id="SvgjsStop1017" stop-color="#f5ec9b" offset="0.5"/><stop id="SvgjsStop1018" stop-color="#905e26" offset="1"/></linearGradient><g xmlns="http://www.w3.org/2000/svg" transform="translate(0,-952.36218)"><path style="color: ; enable-background: accumulate" d="M 10.0625,973.36217 46,1004.6747 l 35.9375,-31.31253 -71.875,0 z M 7,976.01837 7,1022.6434 33.375,999.01837 7,976.01837 z m 78,0 -26.375,23 9.4062,8.43763 c 0.041,-0.1315 0.082,-0.2392 0.125,-0.375 L 81,1001.3622 l 4,1.7812 0,-27.12503 z m -48.5938,25.62503 -26.4374,23.7188 60.3124,0 C 68.2314,1022.138 67,1018.1913 67,1013.9247 c 0,-0.7206 0.01,-1.3663 0.062,-1.9687 l -11.4687,-10.3126 -8.2813,7.2188 a 2.0001999,2.0001999 0 0 1 -2.625,0 l -8.2813,-7.2188 z m 44.5938,1.7188 -11,5 c -0.6528,2.1183 -1,3.5677 -1,6 0,8.3965 5.3333,15.3333 12,17 6.6667,-1.6667 12,-8.6035 12,-17 0,-2.4323 -0.3471,-3.8818 -1,-6 l -11,-5 z" fill="url(#SvgjsLinearGradient1011)" stroke="none" marker="none" visibility="visible" display="inline" overflow="visible"/></g></g>        </g></svg>